<?xml version="1.0" encoding="utf-8"?>
<svg className="ccLogo" preserveAspectRatio="xMidYMid meet" width="200px" height="38.431574600000005px" viewBox="0 0 337.587 64.87" xmlns="http://www.w3.org/2000/svg" style="flex: 1 1 0%; width: 100%; height: 100%; max-width: 200px;"><path d="M108.562 27.104c1.108.045 1.939.322 2.539.923.646.647 1.016 1.569.97 2.723h7.615c-.045-6.416-4.708-9.416-10.755-9.416-8.677 0-14.262 6.416-14.262 14.908 0 7.063 4.846 10.433 11.493 10.433 6.324 0 11.079-3 12.509-9.832h-7.616c-.6 2.446-2.078 4.062-4.57 4.062-2.63 0-3.97-2.031-3.97-5.493 0-3.646 1.43-8.492 6.047-8.308zm26.751-5.77c-8.677 0-14.263 6.416-14.263 14.908 0 7.062 4.848 10.433 11.493 10.433 8.678 0 14.079-6.232 14.079-14.772 0-6.877-4.755-10.569-11.31-10.569zm-2.585 19.571c-2.77 0-3.831-2.216-3.831-4.94 0-3.23 1.662-8.862 5.907-8.862 2.955 0 3.97 2.123 3.97 5.123 0 3.693-1.568 8.68-6.046 8.68zm35.293-19.571c-4.2 0-7.109 1.984-8.262 3.6h-.093l.647-2.908h-7.848l-4.984 23.956h7.846l2.124-10.154c.83-3.925 1.383-8.493 6.231-8.493 1.661 0 2.861 1.015 2.861 2.908 0 .923-.23 1.938-.462 3.047l-2.722 12.693h7.845l2.863-12.74c.278-1.202.831-3.6.831-5.17 0-4.108-2.584-6.739-6.877-6.739zm26.489.692l-7.802 16.894h-.092l-.969-16.894h-7.939l2.954 23.957h9.14l12.923-23.956zm20.52-.692c-8.676 0-14.262 6.416-14.262 14.908 0 7.063 4.849 10.433 11.495 10.433 5.816 0 10.663-2.216 12.554-7.94h-7.661c-.601 1.616-1.894 2.632-4.57 2.632-2.585 0-4.016-1.339-4.247-3.832 0-.784.046-1.154.093-1.616h17.262a29.47 29.47 0 0 0 .278-4.107c0-6.924-4.754-10.478-10.941-10.478zm3.372 10.2h-9.417c.831-3 2.538-4.892 5.77-4.892 2.63 0 3.877 2.214 3.647 4.892zm20.501-5.584h-.091l.877-3.923h-7.618l-4.983 23.956h7.845l2.308-10.986c.787-4.062 2.448-6.785 6.74-6.785 1.477 0 2.492.183 3.555.461l1.522-6.924c-.785-.369-1.57-.415-2.631-.415-3.184 0-5.907 1.799-7.524 4.617zm23.127 1.154h4.986l1.062-5.077h-4.94l1.478-7.202h-7.847l-1.524 7.201h-3.97l-1.06 5.077h3.97l-1.847 8.677c-.6 2.817-.924 4.663-.924 6.325 0 3.647 3.787 4.154 7.433 4.154 1.522 0 2.999-.186 4.569-.277l1.2-5.863c-.831.048-1.615.14-2.447.14-1.338 0-2.446-.092-2.446-1.247 0-.83.186-1.8.415-2.862l1.893-9.046zm19.495-5.77c-8.68 0-14.264 6.416-14.264 14.908 0 7.063 4.847 10.433 11.492 10.433 5.817 0 10.663-2.216 12.557-7.94h-7.663c-.601 1.616-1.894 2.632-4.57 2.632-2.584 0-4.016-1.339-4.247-3.832 0-.784.047-1.154.092-1.616h17.264c.185-1.338.277-2.676.277-4.107 0-6.924-4.755-10.478-10.938-10.478zm3.368 10.2h-9.417c.832-3 2.539-4.892 5.77-4.892 2.63 0 3.878 2.214 3.647 4.892zm30.656-9.784c-.784-.37-1.57-.415-2.631-.415-3.184 0-5.907 1.798-7.522 4.616h-.093l.877-3.924h-7.616l-4.985 23.956h7.846l2.309-10.986c.784-4.062 2.446-6.785 6.738-6.785a13 13 0 0 1 3.555.461l1.522-6.923zm13.759 9.415c-2.815-.692-5.353-1.015-5.353-2.722 0-1.708 1.938-2.262 3.554-2.262.878 0 1.893.276 2.353.83.463.509.648 1.247.601 2.078h7.11c.321-6.14-4.894-7.755-9.879-7.755-5.123 0-11.586 1.708-11.586 8.124 0 4.524 3.092 5.77 6.601 6.555 3.831.969 5.724 1.06 5.724 3.138 0 1.938-2.169 2.446-3.508 2.446-1.247 0-2.354-.275-3.093-.968-.555-.6-.924-1.387-.878-2.494h-7.2c.23 6.232 4.154 8.54 10.248 8.54 5.631 0 12.277-1.34 12.277-8.678 0-4.708-2.537-5.723-6.97-6.832z" fill="rgb(124, 0, 47)"></path><g fill="rgb(237, 176, 17)"><path d="M21.833 29.596c.185-5.54-3.74-8.124-8.91-8.124C4.754 21.472 0 29.412 0 36.842c0 5.862 3.277 9.833 9.185 9.833 5.77 0 9.37-2.954 11.125-8.402H17.4c-1.245 3.464-4.014 5.956-7.845 5.956-4.524 0-6.648-3.14-6.648-7.386 0-6.184 3.324-12.924 10.294-12.924 3.416 0 5.954 2.123 5.724 5.677h2.908zm22.662-2.816c0-4.2-5.03-5.308-8.261-5.308-5.124 0-9.279 2.401-10.063 7.801h2.908c.6-3.969 3.785-5.354 7.478-5.354 2.215 0 5.031.6 5.031 3.416 0 3.137-.97 4.2-2.862 4.661-1.845.461-4.524.23-7.57.692-4.246.74-8.261 2.355-8.261 7.386 0 4.66 3.277 6.601 7.616 6.601 3.323 0 6.6-1.617 8.262-4.386l.092.093c-.046.416-.092.877-.092 1.293.046 1.57.923 2.584 2.539 2.584.784 0 1.754-.093 2.4-.23l.415-2.308c-.415.045-.738.092-1.154.092-.692 0-1.522-.138-1.522-.97 0-1.43.507-2.676 1.569-8.033.46-2.122 1.475-5.72 1.475-8.03zM39.65 37.26c-.923 4.153-3.877 6.968-8.54 6.968-2.77 0-5.308-1.247-5.308-4.294 0-4.984 5.863-5.17 9.417-5.445 1.476-.092 4.338-.185 5.261-1.339l.093.093-.923 4.016zm27.74-8.126c.092-5.492-3.508-7.662-8.493-7.662-3.832 0-8.816 1.893-8.816 6.509 0 3.923 3.185 5.354 6.37 6.6 3.138 1.2 6.415 2.17 6.415 5.262 0 3.047-3.415 4.386-6 4.386-3.369 0-6.785-1.386-6.739-6.002H47.22c-.277 5.956 4.385 8.448 8.954 8.448 4.524 0 9.601-1.94 9.601-7.294 0-4.384-4.477-5.723-7.754-7.015-2.677-1.063-5.032-2.17-5.032-4.385 0-3.278 3.37-4.062 5.91-4.062 3.276 0 5.815 1.57 5.584 5.215h2.908zm7.108 4.616c1.292-6.046 5.123-9.83 9.324-9.83 2.585 0 4.985 1.154 4.985 4.293 0 .783-.139 1.66-.323 2.399l-3.324 15.37h2.907l3.279-15.278c.229-1.108.368-2.075.368-2.817 0-4.568-3.046-6.415-7.201-6.415-3.553 0-6.692 2.216-8.354 5.032h-.092l2.908-13.48h-2.908l-7.108 32.959h2.908l2.631-12.232z"></path><path d="M87.54 62.305c-24.895 2.418-8.765-18.92-8.765-18.92.268-.47 2.068-3.356 2.068-3.356-11.412 10.187-19.222 27.734 5.62 24.437 15.353-2.036 36.366-14.648 52.254-31.341.064-1.972-.12-2.982-.248-3.417-14.31 17.694-36.347 31.18-50.93 32.597zm40.044-58.246c-11.007 4.535-16.78 8.502-19.627 10.932l.759-3.471-4.5 7.11 8.699-3.445-4.457.338c4.185-2.675 12.235-7.384 20.547-9.88 3.294-.987 28.36-6.312 16.237 14.354a73.213 73.213 0 0 1-2.294 3.642 8.816 8.816 0 0 1 2.09 2.28 100.733 100.733 0 0 0 4.981-6.726c13.25-19.61-2.65-23.285-22.435-15.134z"></path></g></svg>