<?xml version="1.0" encoding="UTF-8"?>
<svg xmlns="http://www.w3.org/2000/svg" xmlns:xlink="http://www.w3.org/1999/xlink" width="280pt" height="280pt" viewBox="0 0 280 280" version="1.1">
<g id="surface1">
<path style=" stroke:none;fill-rule:nonzero;fill:rgb(93.299866%,69.799805%,6.298828%);fill-opacity:1;" d="M 206.992188 151.238281 L 123.480469 208.691406 C 121.160156 210.28125 118.453125 211.09375 115.742188 211.09375 C 113.5625 211.09375 111.394531 210.574219 109.398438 209.535156 C 104.914063 207.160156 102.097656 202.511719 102.097656 197.453125 L 102.097656 82.550781 C 102.097656 77.488281 104.914063 72.839844 109.398438 70.46875 C 113.882813 68.113281 119.300781 68.4375 123.480469 71.3125 L 206.992188 128.761719 C 210.6875 131.304688 212.898438 135.511719 212.898438 140 C 212.898438 144.488281 210.6875 148.695313 206.992188 151.238281 Z M 140 0 C 62.675781 0 0 62.675781 0 140 C 0 217.324219 62.675781 280 140 280 C 217.324219 280 280 217.324219 280 140 C 280 62.675781 217.324219 0 140 0 "/>
</g>
</svg>
