<svg preserveAspectRatio="xMidYMid meet" viewBox="0 0 1000 1000" width="48px" xmlns="http://www.w3.org/2000/svg" style="flex: 1 1 0%;">
    <path d="M938.737 316.11c-23.795-56.256-57.857-106.778-101.242-150.163-43.385-43.384-93.907-77.447-150.163-101.24-58.246-24.637-120.115-37.128-183.89-37.128-55.91 0-112.393 11.632-167.883 34.574-51.351 21.23-101.024 52.264-143.647 89.743-41.824 36.776-76.939 79.771-101.55 124.337-23.247 42.1-37.159 85.793-40.56 127.13L35.499 388.22a5 5 0 1 0-8.345 5.11l31.698 89.08a5 5 0 0 0 9.236.45l40.32-85.826a5 5 0 0 0-7.34-6.258l-19.68 13.407c11.69-39.075 29.375-76.148 52.675-110.385 25.468-37.424 56.953-70.466 93.579-98.208 36.988-28.016 78.182-49.83 122.437-64.837 45.797-15.53 93.883-23.403 142.923-23.403 57.827 0 113.92 10.85 166.72 32.252 50.99 20.666 96.78 50.25 136.1 87.929 39.305 37.664 70.161 81.518 91.711 130.344 22.305 50.532 33.614 104.21 33.614 159.545 0 55.335-11.309 109.014-33.614 159.545-21.55 48.825-52.406 92.68-91.71 130.344-39.32 37.68-85.111 67.262-136.1 87.93-52.801 21.4-108.894 32.251-166.72 32.251-66.99 0-131.136-14.4-190.658-42.801-56.74-27.074-107.45-66.732-146.651-114.686a5.001 5.001 0 0 0-8.47 5.125c15.857 37.204 36.75 69.504 62.096 96.001 23.658 24.731 51.91 45.15 83.974 60.69 56.372 27.32 125.113 40.602 210.15 40.602 63.774 0 125.643-12.491 183.89-37.127 56.255-23.795 106.777-57.857 150.162-101.242s77.447-93.907 101.242-150.163c24.636-58.246 37.127-120.116 37.127-183.89s-12.491-125.644-37.127-183.89z" fill="rgb(237, 176, 17)"></path>
</svg>