<svg preserveAspectRatio="xMidYMid meet" viewBox="0 0 1000 1000" width="48px" xmlns="http://www.w3.org/2000/svg" style="flex: 1 1 0%;">
<path d="M329.038 350.969c-112.366 0-165.922 108.644-165.922 208.355 0 68.401 34.2 119.067 107.155 119.067 61.745 0 106.368-40.2 126.467-96.033h46.9c-28.289 87.8-86.311 135.444-179.322 135.444-95.245 0-148.056-64.022-148.056-158.478 0-119.767 76.633-247.767 208.311-247.767m409.256-2.242c97.478 0 172.667 48.389 173.367 151.778H784.45c.745-18.61-5.21-33.5-15.633-43.878-9.677-9.722-23.077-14.145-40.944-14.889" fill="rgb(124, 0, 47)"></path>
</svg>